# xmcd
#
# Track frame offsets:
#   150
#   14693
#   29781
#   42721
#   58189
#   71698
#   91846
#   114577
#   127004
#   149188
#   159519
#   176482
#   195306
#   215621
#
# Disc length: 3215 seconds
#
# Revision: 0
# Processed by: cddbd v1.4PL0 Copyright (c) Steve Scherf et al.
# Submitted via: uFREEDB 1.6.0
#
DISCID=dd0c8d0e
DTITLE=Chambers, Kasey - Barricades and Brickwalls
DYEAR=2001
DGENRE=Country
TTITLE0=Barricades and Brickwalls
TTITLE1=Not Pretty Enough
TTITLE2=On A Bad Day
TTITLE3=Runaway Train
TTITLE4=A Little Bit Lonesome
TTITLE5=Nullabor Song
TTITLE6=Million Tears
TTITLE7=Still Feeling Blue
TTITLE8=This Mountain
TTITLE9=Crossfire
TTITLE10=Falling Into You
TTITLE11=If I Were You
TTITLE12=I Still Pray
TTITLE13=Ignorance (Bonus)
EXTD=
EXTT0=
EXTT1=
EXTT2=
EXTT3=
EXTT4=
EXTT5=
EXTT6=
EXTT7=
EXTT8=
EXTT9=
EXTT10=
EXTT11=
EXTT12=
EXTT13=
PLAYORDER=
